<svg xmlns="http://www.w3.org/2000/svg" width="32.567" height="32.567" viewBox="0 0 32.567 32.567">
  <g id="Close" transform="translate(-1782.569 -68.425)">
    <path id="Tracé_3152" data-name="Tracé 3152" d="M51.877,31.909H88.147a2.342,2.342,0,0,0,2.476-2.2h0a2.342,2.342,0,0,0-2.476-2.2H51.877A2.342,2.342,0,0,0,49.4,29.7h0A2.314,2.314,0,0,0,51.877,31.909Z" transform="translate(1770.501 14.049) rotate(45)"/>
    <path id="Tracé_3153" data-name="Tracé 3153" d="M2.477,0H38.747a2.342,2.342,0,0,1,2.476,2.2h0a2.342,2.342,0,0,1-2.476,2.2H2.477A2.342,2.342,0,0,1,0,2.2H0A2.314,2.314,0,0,1,2.477,0Z" transform="translate(1814.835 71.843) rotate(135)"/>
  </g>
</svg>
