<svg xmlns="http://www.w3.org/2000/svg" width="198.747" height="61.27" viewBox="0 0 198.747 61.27"><text transform="translate(73.747 32.884)" fill="#fff" font-size="34" font-family="ABebedera-Heavy, A Bebedera" font-weight="800" letter-spacing="0.009em"><tspan x="0" y="0">MIRAGE</tspan></text><text transform="translate(75.747 51.884)" fill="#fff" font-size="18" font-family="ProximaNova-Light, Proxima Nova" font-weight="300" letter-spacing="0.365em"><tspan x="0" y="0">FESTIVAL</tspan></text><g transform="translate(0 0)"><g transform="translate(0 0)"><path d="M61.276,28.511c-.031,9.726-2.473,16.452-7.461,22.163A29.739,29.739,0,0,1,31.189,61.26,29.611,29.611,0,0,1,10.11,53.38,29.685,29.685,0,0,1,.057,32.488,29.625,29.625,0,0,1,7.7,10.319,29.62,29.62,0,0,1,29.293.029,29.86,29.86,0,0,1,51.841,8.5C57.856,14.184,61.394,22.292,61.276,28.511Zm-16.6.154c-.435-.266-.833-.481-1.195-.747a.26.26,0,0,0-.368,0h0c-.745.493-1.5.966-2.256,1.457-.4.26-.8.539-1.249.833.337.208.624.383.893.562,1.292.833,2.579,1.686,3.886,2.5a.585.585,0,0,1,.327.581c-.012,2.346.031,4.693-.025,7.037a1.979,1.979,0,0,0,1.975,1.983,2.03,2.03,0,0,0,.274-.019,2.066,2.066,0,0,0,1.722-2c-.021-3.293,0-6.587,0-9.88V19.978a1.417,1.417,0,0,0-.7-1.332c-.962-.581-1.9-1.207-2.837-1.823-.851-.56-1.688-1.141-2.541-1.7-1.551-1.014-3.122-2.015-4.666-3.026-1.913-1.249-3.817-2.5-5.734-3.746A1.929,1.929,0,0,0,30.3,8.19a1.775,1.775,0,0,0-1.161,1.532,1.885,1.885,0,0,0,.8,1.938c1.109.716,2.225,1.419,3.33,2.137,1.725,1.118,3.449,2.244,5.172,3.363l4.4,2.855c.208.133.4.285.643.458-.31.181-.558.314-.793.466-1.509.976-3.014,1.963-4.529,2.926a.516.516,0,0,1-.45,0c-1.873-1.188-3.746-2.377-5.6-3.6a2.115,2.115,0,0,0-2.031-.26,1.825,1.825,0,0,0-1.226,1.665,1.861,1.861,0,0,0,.731,1.738c.833.6,1.717,1.128,2.583,1.682.676.433,1.357.86,2.081,1.313-1,.639-1.971,1.234-2.914,1.873a.337.337,0,0,1-.45,0c-1.6-1.03-3.205-2.056-4.812-3.1s-3.149-2.063-4.727-3.091c-1.513-.978-3.032-1.948-4.543-2.945a3.147,3.147,0,0,0-2.6-.647,2.316,2.316,0,0,0-1.788,2.167v20.4a.993.993,0,0,0,.023.333,2.012,2.012,0,0,0,2.229,1.457,1.929,1.929,0,0,0,1.7-1.894q-.017-7.7,0-15.42v-1.4a3.121,3.121,0,0,1,.3.148c.8.5,1.6.995,2.4,1.5,1.413.905,2.82,1.819,4.229,2.729,1.646,1.061,3.284,2.135,4.943,3.178a.585.585,0,0,1,.312.593c-.015.472,0,.947,0,1.422V51.2a1.979,1.979,0,0,0,.46,1.359,2.059,2.059,0,0,0,1.888.7A2.031,2.031,0,0,0,32.483,51.8a10.2,10.2,0,0,0,.06-1.38V32.191a.5.5,0,0,1,.264-.47q2-1.276,3.99-2.558c.907-.583,1.819-1.157,2.726-1.74,1.176-.76,2.346-1.526,3.521-2.289.531-.343,1.068-.676,1.648-1.041Z" transform="translate(0.004 0.003)" fill="#fff"/></g></g></svg>