<svg xmlns="http://www.w3.org/2000/svg" width="39.138" height="34.675" viewBox="0 0 39.138 34.675"><path d="M37.609,23.839h1.529V0H0S0,3.844,0,5.418V29.257c0,1.332,0,5.418,0,5.418H39.138V27.9H36.08v4.064H25.531V22.078H30.79v-4.2H25.531V13.342a2.174,2.174,0,0,1,2.293-2.032h1.911c.5,0,1.518-.009,1.529,0s0-1.047,0-1.355V8.585c0-.238.014-1.061,0-1.065a4.151,4.151,0,0,0-1.371-.282c-.775-.07-1.6-.127-2.069-.127a7.561,7.561,0,0,0-4.9,1.828,5.85,5.85,0,0,0-2.13,4.415v4.526H15.823v4.2h4.969v9.888H3.058V2.709H36.08v21.13Zm0,0" transform="translate(0)" fill="#fff"/></svg>