<svg xmlns="http://www.w3.org/2000/svg" width="32.47" height="32.487" viewBox="0 0 32.47 32.487">
  <path id="facebook" d="M31.2,22.335H32.47V0H0S0,3.6,0,5.076V27.411c0,1.248,0,5.076,0,5.076H32.47V26.142H29.933v3.807H21.182V20.685h4.363V16.751H21.182V12.5a1.9,1.9,0,0,1,1.9-1.9H24.67c.413,0,1.259-.008,1.268,0s0-.981,0-1.269V8.044c0-.223.012-.994,0-1A3.107,3.107,0,0,0,24.8,6.781c-.643-.065-1.324-.119-1.716-.119a5.871,5.871,0,0,0-4.068,1.713,5.779,5.779,0,0,0-1.767,4.136v4.24H13.128v3.934H17.25v9.264H2.537V2.538h27.4v19.8Zm0,0" transform="translate(0)" fill="#fff"/>
</svg>
