<svg xmlns="http://www.w3.org/2000/svg" width="39.138" height="39.14" viewBox="0 0 39.138 39.14">
  <path id="facebook" d="M37.609,26.909h1.529V0H0S0,4.338,0,6.116V33.024c0,1.5,0,6.116,0,6.116H39.138V31.5H36.08v4.587H25.531V24.921H30.79v-4.74H25.531V15.06a2.293,2.293,0,0,1,2.293-2.293h1.911c.5,0,1.518-.01,1.529,0s0-1.182,0-1.529V9.691c0-.269.014-1.2,0-1.2a3.746,3.746,0,0,0-1.371-.319c-.775-.079-1.6-.143-2.069-.143a7.078,7.078,0,0,0-4.9,2.063,6.961,6.961,0,0,0-2.13,4.983v5.108H15.823v4.74h4.969V36.082H3.058V3.058H36.08V26.909Zm0,0" transform="translate(0)"/>
</svg>
