<svg xmlns="http://www.w3.org/2000/svg" width="18.659" height="15.135" viewBox="0 0 18.659 15.135">
  <path id="Tracé_36" data-name="Tracé 36" d="M43.909,17.135A10.788,10.788,0,0,0,54.793,6.25V5.732a8.426,8.426,0,0,0,1.866-1.97,8.605,8.605,0,0,1-2.177.622,4.033,4.033,0,0,0,1.659-2.073,9.508,9.508,0,0,1-2.384.933A3.7,3.7,0,0,0,50.958,2a3.9,3.9,0,0,0-3.836,3.836,2.021,2.021,0,0,0,.1.829,10.718,10.718,0,0,1-7.878-4.043,3.97,3.97,0,0,0-.518,1.97,4.119,4.119,0,0,0,1.659,3.214,3.5,3.5,0,0,1-1.762-.518h0a3.789,3.789,0,0,0,3.11,3.732,3.2,3.2,0,0,1-1.037.1,1.764,1.764,0,0,1-.726-.1,3.927,3.927,0,0,0,3.628,2.7,7.827,7.827,0,0,1-4.769,1.659,2.87,2.87,0,0,1-.933-.1,9.785,9.785,0,0,0,5.909,1.866" transform="translate(-38 -2)" fill-rule="evenodd"/>
</svg>
