<svg xmlns="http://www.w3.org/2000/svg" width="18.659" height="18.659" viewBox="0 0 18.659 18.659">
  <path id="Tracé_199" data-name="Tracé 199" d="M9.33,1.659a28.607,28.607,0,0,1,3.732.1,4.808,4.808,0,0,1,1.762.311,3.641,3.641,0,0,1,1.762,1.762A4.808,4.808,0,0,1,16.9,5.6c0,.933.1,1.244.1,3.732a28.607,28.607,0,0,1-.1,3.732,4.808,4.808,0,0,1-.311,1.762,3.641,3.641,0,0,1-1.762,1.762,4.808,4.808,0,0,1-1.762.311c-.933,0-1.244.1-3.732.1A28.606,28.606,0,0,1,5.6,16.9a4.808,4.808,0,0,1-1.762-.311,3.641,3.641,0,0,1-1.762-1.762,4.808,4.808,0,0,1-.311-1.762c0-.933-.1-1.244-.1-3.732a28.607,28.607,0,0,1,.1-3.732,4.808,4.808,0,0,1,.311-1.762A3.723,3.723,0,0,1,2.8,2.8a1.753,1.753,0,0,1,1.037-.726A4.808,4.808,0,0,1,5.6,1.762a28.607,28.607,0,0,1,3.732-.1M9.33,0A30.63,30.63,0,0,0,5.494.1,6.4,6.4,0,0,0,3.214.518,4.058,4.058,0,0,0,1.555,1.555,4.058,4.058,0,0,0,.518,3.214,4.723,4.723,0,0,0,.1,5.494,30.63,30.63,0,0,0,0,9.33a30.63,30.63,0,0,0,.1,3.836,6.4,6.4,0,0,0,.415,2.281A4.058,4.058,0,0,0,1.555,17.1a4.058,4.058,0,0,0,1.659,1.037,6.4,6.4,0,0,0,2.281.415,30.629,30.629,0,0,0,3.836.1,30.629,30.629,0,0,0,3.836-.1,6.4,6.4,0,0,0,2.281-.415,4.349,4.349,0,0,0,2.7-2.7,6.4,6.4,0,0,0,.415-2.281c0-1.037.1-1.348.1-3.836a30.629,30.629,0,0,0-.1-3.836,6.4,6.4,0,0,0-.415-2.281A4.058,4.058,0,0,0,17.1,1.555,4.058,4.058,0,0,0,15.446.518,6.4,6.4,0,0,0,13.165.1,30.63,30.63,0,0,0,9.33,0m0,4.561A4.692,4.692,0,0,0,4.561,9.33,4.769,4.769,0,1,0,9.33,4.561m0,7.878A3.054,3.054,0,0,1,6.22,9.33,3.054,3.054,0,0,1,9.33,6.22a3.054,3.054,0,0,1,3.11,3.11,3.054,3.054,0,0,1-3.11,3.11m4.976-9.226a1.14,1.14,0,1,0,1.14,1.14,1.15,1.15,0,0,0-1.14-1.14" fill-rule="evenodd"/>
</svg>
