<svg xmlns="http://www.w3.org/2000/svg" width="29.942" height="29.958" viewBox="0 0 29.942 29.958">
  <g id="Groupe_3454" data-name="Groupe 3454" transform="translate(-128.942 -1.265)">
    <g id="Groupe_45" data-name="Groupe 45" transform="translate(128.942 1.265)">
      <g id="Groupe_44" data-name="Groupe 44">
        <path id="Tracé_60" data-name="Tracé 60" d="M21.244,0H8.7A8.71,8.71,0,0,0,0,8.7V21.255a8.71,8.71,0,0,0,8.7,8.7H21.244a8.6,8.6,0,0,0,3.933-.939,8.775,8.775,0,0,0,3-2.508c.145-.192.6-1.039.6-1.039s-.5-.355-.82-.6c-.239-.181-1-.675-1-.675s-.431.624-.64.9a6.314,6.314,0,0,1-5.069,2.521H8.7a6.367,6.367,0,0,1-6.358-6.362V8.7A6.367,6.367,0,0,1,8.7,2.34H21.244A6.367,6.367,0,0,1,27.6,8.7V21.24h2.339V8.7A8.71,8.71,0,0,0,21.244,0Z" transform="translate(0 0)" fill="#fff"/>
      </g>
    </g>
    <g id="Groupe_47" data-name="Groupe 47" transform="translate(135.844 8.17)">
      <g id="Groupe_46" data-name="Groupe 46">
        <path id="Tracé_61" data-name="Tracé 61" d="M126.07,118a8.075,8.075,0,1,0,8.07,8.075A8.081,8.081,0,0,0,126.07,118Zm0,13.809a5.734,5.734,0,1,1,5.731-5.734A5.739,5.739,0,0,1,126.07,131.809Z" transform="translate(-118 -118)" fill="#fff"/>
      </g>
    </g>
    <g id="Groupe_49" data-name="Groupe 49" transform="translate(151.438 7.168)">
      <g id="Groupe_48" data-name="Groupe 48" transform="translate(0 0)">
        <ellipse id="Ellipse_7" data-name="Ellipse 7" cx="0.884" cy="0.884" rx="0.884" ry="0.884" fill="#fff"/>
      </g>
    </g>
  </g>
</svg>
