<svg xmlns="http://www.w3.org/2000/svg" width="36.09" height="36.092" viewBox="0 0 36.09 36.092">
  <g id="Groupe_3414" data-name="Groupe 3414" transform="translate(-155.422 -1.524)">
    <g id="Groupe_45" data-name="Groupe 45" transform="translate(155.422 1.524)">
      <g id="Groupe_44" data-name="Groupe 44">
        <path id="Tracé_60" data-name="Tracé 60" d="M25.607,0H10.484A10.5,10.5,0,0,0,0,10.484V25.608A10.5,10.5,0,0,0,10.484,36.092H25.607a10.373,10.373,0,0,0,4.741-1.131,10.576,10.576,0,0,0,3.616-3.022c.175-.231.717-1.252.717-1.252s-.6-.428-.988-.723c-.288-.218-1.2-.813-1.2-.813s-.519.752-.771,1.084a7.611,7.611,0,0,1-6.11,3.037H10.484A7.673,7.673,0,0,1,2.82,25.608V10.484A7.673,7.673,0,0,1,10.484,2.82H25.607a7.673,7.673,0,0,1,7.664,7.665v15.1h2.82v-15.1A10.5,10.5,0,0,0,25.607,0Z" transform="translate(0 0)"/>
      </g>
    </g>
    <g id="Groupe_47" data-name="Groupe 47" transform="translate(163.74 9.842)">
      <g id="Groupe_46" data-name="Groupe 46">
        <path id="Tracé_61" data-name="Tracé 61" d="M127.728,118a9.728,9.728,0,1,0,9.728,9.728A9.739,9.739,0,0,0,127.728,118Zm0,16.636a6.908,6.908,0,1,1,6.908-6.908A6.916,6.916,0,0,1,127.728,134.636Z" transform="translate(-118 -118)"/>
      </g>
    </g>
    <g id="Groupe_49" data-name="Groupe 49" transform="translate(182.537 8.635)">
      <g id="Groupe_48" data-name="Groupe 48" transform="translate(0 0)">
        <ellipse id="Ellipse_7" data-name="Ellipse 7" cx="1.065" cy="1.065" rx="1.065" ry="1.065"/>
      </g>
    </g>
  </g>
</svg>
