<svg xmlns="http://www.w3.org/2000/svg" width="36.09" height="31.975" viewBox="0 0 36.09 31.975"><g transform="translate(-155.422 -1.35)"><g transform="translate(155.422 1.35)"><path d="M25.607,0H10.484C4.7,0,0,4.167,0,9.288v13.4c0,5.122,4.7,9.288,10.484,9.288H25.607a11.473,11.473,0,0,0,4.741-1A10.38,10.38,0,0,0,33.963,28.3c.175-.2.717-1.109.717-1.109s-.6-.379-.988-.641c-.288-.193-1.2-.72-1.2-.72s-.519.666-.771.961a7.984,7.984,0,0,1-6.11,2.691H10.484c-4.226,0-7.664-3.046-7.664-6.79V9.288c0-3.744,3.438-6.79,7.664-6.79H25.607c4.226,0,7.664,3.046,7.664,6.79V22.67h2.82V9.288C36.091,4.167,31.388,0,25.607,0Z" transform="translate(0 0)" fill="#fff"/></g><g transform="translate(163.738 8.719)"><path d="M127.728,118c-5.364,0-9.728,3.866-9.728,8.618s4.364,8.618,9.728,8.618,9.728-3.866,9.728-8.618S133.091,118,127.728,118Zm0,14.739c-3.809,0-6.908-2.746-6.908-6.12s3.1-6.12,6.908-6.12,6.908,2.746,6.908,6.12S131.537,132.739,127.728,132.739Z" transform="translate(-118 -118)" fill="#fff"/></g><g transform="translate(182.535 7.65)"><g transform="translate(0 0)"><ellipse cx="1.065" cy="0.944" rx="1.065" ry="0.944" fill="#fff"/></g></g></g></svg>