<svg id="Layer_1" enable-background="new 0 0 480.156 480.156" height="512" viewBox="0 0 480.156 480.156" width="512" xmlns="http://www.w3.org/2000/svg"><path d="m419 229.578v210.5c0 22.056-17.944 40-40 40h-188c-22.056 0-40-17.944-40-40v-400c0-22.056 17.944-40 40-40h188c22.056 0 40 17.944 40 40v17c0 4.418-3.582 8-8 8s-8-3.582-8-8v-17c0-13.233-10.767-24-24-24h-152.404l7.682 13.828c2.115 3.807 6.135 6.172 10.49 6.172h80.463c4.418 0 8 3.582 8 8s-3.582 8-8 8h-80.463c-10.162 0-19.541-5.519-24.477-14.402l-11.999-21.598h-17.292c-13.233 0-24 10.767-24 24v400c0 13.233 10.767 24 24 24h188c13.233 0 24-10.767 24-24v-210.5c0-4.418 3.582-8 8-8s8 3.581 8 8zm-291-221.5c0-4.418-3.582-8-8-8h-80c-22.056 0-40 17.944-40 40v400c0 22.056 17.944 40 40 40h80c4.418 0 8-3.582 8-8s-3.582-8-8-8h-80c-13.233 0-24-10.767-24-24v-400c0-13.233 10.767-24 24-24h80c4.418 0 8-3.582 8-8zm-55 114c0 7.168-5.832 13-13 13s-13-5.832-13-13 5.832-13 13-13 13 5.831 13 13zm0-60c0 7.168-5.832 13-13 13s-13-5.832-13-13 5.832-13 13-13 13 5.831 13 13zm27 17c7.168 0 13 5.832 13 13s-5.832 13-13 13-13-5.832-13-13 5.832-13 13-13zm321.951 94.689c9.448 9.449 2.664 25.606-10.607 25.606-13.262 0-20.063-16.149-10.606-25.606 5.861-5.863 15.35-5.864 21.213 0 0-.001 0-.001 0 0zm-47.377-26.163c-3.124 3.124-3.124 8.189 0 11.313 3.125 3.125 8.189 3.125 11.314 0 14.068-14.069 36.842-14.07 50.911 0 1.563 1.563 3.609 2.343 5.657 2.343 7.063 0 10.712-8.602 5.657-13.657-20.32-20.321-53.213-20.324-73.539.001zm103.239-29.699c-36.738-36.737-96.195-36.74-132.937 0-3.124 3.124-3.124 8.189 0 11.313 3.125 3.124 8.189 3.124 11.314 0 30.412-30.413 79.896-30.411 110.308 0 3.126 3.125 8.189 3.124 11.314 0s3.125-8.189.001-11.313z"/></svg>