<?xml version="1.0" encoding="iso-8859-1"?>
<!-- Generator: Adobe Illustrator 19.0.0, SVG Export Plug-In . SVG Version: 6.00 Build 0)  -->
<svg version="1.1" id="Capa_1" xmlns="http://www.w3.org/2000/svg" xmlns:xlink="http://www.w3.org/1999/xlink" x="0px" y="0px"
	 viewBox="0 0 512 512" style="enable-background:new 0 0 512 512;" xml:space="preserve">
<g>
	<g>
		<g>
			<path d="M135.178,188.175c4.96,0,9.929-1.834,13.802-5.528l104.657-99.833c0.027-0.025,0.053-0.051,0.079-0.076
				C264.909,71.944,279.636,66,295.185,66H492c11.046,0,20-8.954,20-20s-8.954-20-20-20H295.185c-25.935,0-50.5,9.904-69.18,27.893
				L121.37,153.704c-7.993,7.624-8.291,20.283-0.667,28.276C124.633,186.1,129.9,188.175,135.178,188.175z"/>
			<path d="M92.716,252.001c0.087,0,0.175-0.001,0.262-0.001l50.06-0.092c11.046-0.021,19.983-8.992,19.963-20.037
				c-0.02-11.033-8.97-19.963-19.999-19.963h-0.038L92.822,212H92.8c-1.056,0-1.733-0.455-2.116-0.837
				c-0.689-0.69-0.685-1.421-0.683-1.743l0.091-49.276c0.02-11.046-8.918-20.016-19.963-20.037h-0.038
				c-11.028,0-19.978,8.93-19.999,19.963l-0.09,49.194c-0.068,11.401,4.335,22.12,12.398,30.183
				C70.501,247.549,81.286,252.001,92.716,252.001z"/>
			<path d="M432.004,142H368c-29.919,0-58.202,11.495-79.639,32.366L132.617,326H79.996c-21.563,0-41.782,8.452-56.932,23.8
				C7.916,365.147-0.273,385.48,0.007,407.055C0.571,450.585,36.856,486,80.891,486H209c11.046,0,20-8.954,20-20v-25h27
				c11.046,0,20-8.954,20-20v-26h26c11.046,0,20-8.954,20-20v-27h27c11.046,0,20-8.954,20-20v-26h62.109
				c44.035,0,80.319-35.414,80.884-78.944c0.28-21.576-7.909-41.909-23.057-57.256C473.786,150.452,453.567,142,432.004,142z
				 M431.109,262H349c-11.046,0-20,8.954-20,20v26h-27c-11.046,0-20,8.954-20,20v27h-26c-11.046,0-20,8.954-20,20v26h-27
				c-11.046,0-20,8.954-20,20v25H80.891c-22.263,0-40.605-17.703-40.887-39.464c-0.14-10.793,3.954-20.963,11.527-28.636
				c7.575-7.674,17.684-11.9,28.465-11.9h60.749c5.212,0,10.218-2.034,13.952-5.67l161.568-157.304
				C330.191,189.467,348.564,182,368,182h64.004c10.781,0,20.89,4.226,28.464,11.9c7.575,7.673,11.668,17.843,11.528,28.637
				C471.714,244.297,453.373,262,431.109,262z"/>
		</g>
	</g>
</g>
<g>
</g>
<g>
</g>
<g>
</g>
<g>
</g>
<g>
</g>
<g>
</g>
<g>
</g>
<g>
</g>
<g>
</g>
<g>
</g>
<g>
</g>
<g>
</g>
<g>
</g>
<g>
</g>
<g>
</g>
</svg>
