<svg id="pin" xmlns="http://www.w3.org/2000/svg" width="19.994" height="24.558" viewBox="0 0 19.994 24.558">
  <g id="Groupe_3387" data-name="Groupe 3387" transform="translate(0)">
    <g id="Groupe_3386" data-name="Groupe 3386">
      <path id="Tracé_204" data-name="Tracé 204" d="M168.146,89.639a1.137,1.137,0,1,0-.308-2.253,3.214,3.214,0,0,1-.422.028,3.069,3.069,0,1,1,3.071-2.571,1.139,1.139,0,0,0,.952,1.305,1.15,1.15,0,0,0,1.323-.939,5.316,5.316,0,0,0,.071-.865,5.417,5.417,0,1,0-5.416,5.344A5.566,5.566,0,0,0,168.146,89.639Z" transform="translate(-157.448 -74.509)"/>
      <path id="Tracé_206" data-name="Tracé 206" d="M91.994,24.029a1.161,1.161,0,0,0,1.948,0A30.991,30.991,0,0,1,97.7,19.534c2.6-2.733,5.286-5.56,5.29-9.758a9.606,9.606,0,0,0-2.951-6.937,10.2,10.2,0,0,0-14.124,0A9.643,9.643,0,0,0,83,9.779c0,4.2,2.678,7.034,5.264,9.772A31.332,31.332,0,0,1,91.994,24.029Zm.974-21.755a7.63,7.63,0,0,1,7.721,7.5c0,3.3-2.164,5.57-4.666,8.2a43.448,43.448,0,0,0-3.054,3.452A43.936,43.936,0,0,0,89.95,18c-2.491-2.638-4.642-4.916-4.646-8.222A7.511,7.511,0,0,1,92.968,2.274Z" transform="translate(-83)"/>
    </g>
  </g>
</svg>
