<svg height="512pt" viewBox="0 -20 512 512" width="512pt" xmlns="http://www.w3.org/2000/svg"><path d="m495.980469 262.398438c9.320312-1.890626 16.019531-10.089844 16.019531-19.601563v-51c0-44.113281-35.886719-80-80-80h-352c-5.789062 0-11.429688.632813-16.871094 1.804687 2.558594-1.175781 5.273438-2.101562 8.125-2.742187l312.730469-70.074219c16.238281-3.515625 32.882813 4.929688 39.585937 20.097656 4.464844 10.101563 16.273438 14.667969 26.375 10.207032 10.105469-4.464844 14.675782-16.273438 10.210938-26.375-14.355469-32.484375-49.992188-50.570313-84.726562-43.003906-.039063.007812-.078126.015624-.117188.027343l-312.804688 70.089844c-17.671874 3.960937-33.636718 13.925781-44.957031 28.0625-11.316406 14.132813-17.550781 31.894531-17.550781 50.003906v92.90625c0 9.511719 6.699219 17.707031 16.019531 19.597657 13.894531 2.820312 23.980469 15.183593 23.980469 29.398437s-10.085938 26.578125-23.980469 29.398437c-9.320312 1.890626-16.019531 10.089844-16.019531 19.601563v51c0 44.113281 35.886719 80 80 80h352c44.113281 0 80-35.886719 80-80v-51c0-9.511719-6.699219-17.710937-16.019531-19.601563-13.894531-2.820312-23.980469-15.183593-23.980469-29.398437s10.085938-26.578125 23.980469-29.398437zm-23.980469-33.851563c-23.90625 11.386719-40 35.847656-40 63.25 0 27.40625 16.09375 51.863281 40 63.25v36.75c0 22.054687-17.945312 40-40 40h-49c0-11.046875-8.953125-20-20-20s-20 8.953125-20 20h-263c-22.054688 0-40-17.945313-40-40v-36.75c23.90625-11.386719 40-35.847656 40-63.25s-16.09375-51.863281-40-63.25v-36.75c0-22.054687 17.945312-40 40-40h263c0 11.046875 8.953125 20 20 20s20-8.953125 20-20h49c22.054688 0 40 17.945313 40 40zm-89-6.75c0 11.046875-8.953125 20-20 20s-20-8.953125-20-20 8.953125-20 20-20 20 8.953125 20 20zm0 70c0 11.046875-8.953125 20-20 20s-20-8.953125-20-20 8.953125-20 20-20 20 8.953125 20 20zm0 70c0 11.046875-8.953125 20-20 20s-20-8.953125-20-20 8.953125-20 20-20 20 8.953125 20 20zm-100.871094-73.433594-27.710937 19.914063c-4.125 2.964844-5.847657 8.21875-4.273438 13.011718l10.585938 32.222657c3.519531 10.722656-8.882813 19.636719-18.105469 13.011719l-27.710938-19.921876c-2.0625-1.480468-4.488281-2.222656-6.914062-2.222656s-4.851562.742188-6.914062 2.222656l-27.710938 19.921876c-9.222656 6.625-21.625-2.289063-18.105469-13.011719l10.585938-32.222657c1.574219-4.796874-.148438-10.046874-4.273438-13.011718l-27.710937-19.914063c-9.21875-6.625-4.480469-21.566406 6.914062-21.566406h34.253906c5.097657 0 9.613282-2.730469 11.1875-7.527344l10.585938-32.433593c1.761719-5.359376 6.472656-8.039063 11.1875-8.039063s9.429688 2.679687 11.1875 8.039063l10.585938 32.433593c1.574218 4.792969 6.09375 7.527344 11.1875 7.527344h34.253906c11.394531 0 16.132812 14.941406 6.914062 21.566406zm0 0"/></svg>