<svg xmlns="http://www.w3.org/2000/svg" width="27.429" height="22.781" viewBox="0 0 27.429 22.781"><path d="M27.429,9.784V4.207l-24.047.13L21.871.605,22.6,2.358l1.74-.444L22.985-1.471s-1.83.3-2.872.506L0,3.131v8.257a5.334,5.334,0,0,1,.858,0,8.831,8.831,0,0,0,1.285,0v2.786a7.263,7.263,0,0,0-1.285,0,7.653,7.653,0,0,1-.858,0V21.31H27.429V14.562H24.651V11.09h2.777Zm-2.143,0H23.143v5.994h2.143v3.637H20.518l-1.071-.948-1.071.948H2.143V15.778H4.286V9.784H2.143V6.147H18.375l1.071.948,1.071-.948h4.768V9.784Zm-4.768-.32-1.071.948-1.071-.948,1.071-.948Zm0,3.317-1.071.948-1.071-.948,1.071-.948Zm0,3.317-1.071.948L18.375,16.1l1.071-.948Z" transform="translate(0 1.471)"/></svg>