<svg xmlns="http://www.w3.org/2000/svg" width="27.885" height="17.063" viewBox="0 0 27.885 17.063">
  <g id="Groupe_3385" data-name="Groupe 3385" transform="translate(0 0)">
    <g id="Groupe_3384" data-name="Groupe 3384">
      <path id="Tracé_203" data-name="Tracé 203" d="M24.995,214.238l-3.714-1.419-6.531-5.092a3.23,3.23,0,0,0-1.975-.683H5.119a3.217,3.217,0,0,0-2.578,1.294,1.127,1.127,0,0,0-.135.231L.683,212.533A8.205,8.205,0,0,0,0,215.824v2.687a3.317,3.317,0,0,0,3.268,3.358h1a3.239,3.239,0,0,0,6.161,0H13.18a1.12,1.12,0,0,0,0-2.238H10.433a3.239,3.239,0,0,0-6.161,0h-1a1.106,1.106,0,0,1-1.089-1.119v-2.687a6.034,6.034,0,0,1,.044-.726H20.832a1.058,1.058,0,0,0,.136-.01l3.269,1.249.005,0a2.308,2.308,0,0,1,1.464,2.159s0,.009,0,.013v1.119H23.34a3.28,3.28,0,0,0-3.08-2.238,3.359,3.359,0,0,0,0,6.715,3.28,3.28,0,0,0,3.08-2.238H26.8a1.1,1.1,0,0,0,1.089-1.119v-2.232A4.52,4.52,0,0,0,24.995,214.238ZM7.352,219.63a1.12,1.12,0,1,1-1.089,1.119A1.106,1.106,0,0,1,7.352,219.63Zm.163-6.771H2.927l1.4-3.231a1.067,1.067,0,0,1,.787-.346h2.4v3.577Zm2.178,0v-3.577h3.079a1.077,1.077,0,0,1,.658.228l4.3,3.349H9.694Zm10.566,9.01a1.12,1.12,0,1,1,1.089-1.119A1.106,1.106,0,0,1,20.26,221.869Z" transform="translate(0 -207.044)"/>
    </g>
  </g>
</svg>
