<svg id="Layer_1" enable-background="new 0 0 480.156 480.156" height="512" viewBox="0 0 480.156 480.156" width="512" xmlns="http://www.w3.org/2000/svg"><path d="m400.737 372.562c-9.445 9.447-2.665 25.606 10.607 25.606 13.41 0 19.969-16.243 10.607-25.606-5.861-5.862-15.35-5.864-21.214 0zm47.377-26.163c3.125 3.124 3.125 8.189 0 11.313-3.124 3.124-8.189 3.124-11.313 0-14.07-14.069-36.841-14.071-50.912 0-1.562 1.562-3.609 2.343-5.657 2.343-7.062 0-10.712-8.602-5.657-13.657 20.321-20.321 53.215-20.324 73.539.001zm29.699-18.385c-3.124 3.124-8.189 3.124-11.313 0-30.483-30.483-79.822-30.487-110.309 0-3.125 3.125-8.189 3.124-11.313 0-3.125-3.124-3.125-8.189 0-11.313 36.736-36.737 96.196-36.74 132.936 0 3.123 3.124 3.123 8.189-.001 11.313zm-150.813 37.564c0 4.418-3.582 8-8 8h-287c-17.645 0-32-14.355-32-32v-281c0-17.645 14.355-32 32-32h416c17.645 0 32 14.355 32 32v195.333c0 4.418-3.582 8-8 8s-8-3.582-8-8v-195.333c0-8.822-7.178-16-16-16h-416c-8.822 0-16 7.178-16 16v241.185h280c4.418 0 8 3.582 8 8s-3.582 8-8 8h-280v23.815c0 8.822 7.178 16 16 16h287c4.418 0 8 3.581 8 8zm-3 78c0 4.418-3.582 8-8 8-99.928 0-74.805 0-152 0-4.418 0-8-3.582-8-8s3.582-8 8-8h23.582l8.975-40.393c.958-4.313 5.231-7.033 9.545-6.074 4.313.958 7.033 5.231 6.074 9.545l-8.204 36.922h72.055l-8.204-36.922c-.958-4.313 1.761-8.586 6.074-9.545 4.317-.958 8.587 1.761 9.545 6.074l8.975 40.393h23.583c4.418 0 8 3.581 8 8z"/></svg>