<svg xmlns="http://www.w3.org/2000/svg" width="27.814" height="22.3" viewBox="0 0 27.814 22.3">
  <path id="twitter" d="M24.513,3.582,24.5,3.53A5.812,5.812,0,0,0,27.052.374a11.981,11.981,0,0,1-3.694,1.39A5.524,5.524,0,0,0,19.284,0a5.705,5.705,0,0,0-5.758,5.615,10.344,10.344,0,0,0,.093,1.34A16.427,16.427,0,0,1,5.857,4.314,14.923,14.923,0,0,1,2.645,1.584a1.1,1.1,0,0,0-1.286-.319A1.067,1.067,0,0,0,.718,2.408,16.573,16.573,0,0,0,3.279,8.7a2.912,2.912,0,0,1-.8-.226,1.078,1.078,0,0,0-1.216.092,1.066,1.066,0,0,0-.34,1.178A7.852,7.852,0,0,0,5.4,14.071a5.643,5.643,0,0,1-1.416.208H3.965a1.085,1.085,0,0,0-1.024.714,1.059,1.059,0,0,0,.36,1.2,11.781,11.781,0,0,0,4.175,1.818,7.792,7.792,0,0,1-3.129.863,10.877,10.877,0,0,1-3-.182,1.09,1.09,0,0,0-1.291.7A1.064,1.064,0,0,0,.667,20.72a22.8,22.8,0,0,0,7.59,1.58,21.519,21.519,0,0,0,6.248-.748,13.122,13.122,0,0,0,5.661-3.366c.161-.16.772-.859.772-.859s-.517-.4-.78-.654c-.156-.152-.816-.745-.816-.745s-.453.487-.721.754c-2.9,2.888-6.243,3.48-10.364,3.48q-.145,0-.29,0a8.108,8.108,0,0,0,2.923-2.206,1.056,1.056,0,0,0,.148-1.121,1.087,1.087,0,0,0-.957-.626,10.688,10.688,0,0,1-2.962-.512A4.757,4.757,0,0,0,8.8,14.332,1.056,1.056,0,0,0,8.942,13.3a1.083,1.083,0,0,0-.819-.661A7.5,7.5,0,0,1,4.3,10.881a7.712,7.712,0,0,0,1.448-.217A1.079,1.079,0,0,0,6.536,9.9a1.058,1.058,0,0,0-.3-1.046A10.558,10.558,0,0,1,4.027,5.672q.268.189.559.38A18.885,18.885,0,0,0,14.938,9.145a1.092,1.092,0,0,0,.862-.42,1.058,1.058,0,0,0,.187-.93,9.426,9.426,0,0,1-.288-2.18A3.394,3.394,0,0,1,16.75,3.166a3.618,3.618,0,0,1,2.534-1.027,3.334,3.334,0,0,1,2.49,1.09,4.215,4.215,0,0,1,1.041,2.434V6.31a.62.62,0,0,0,.008.09,1.1,1.1,0,0,0-.008.124,14.5,14.5,0,0,1-1.359,6.433c-.133.271-.519.93-.519.93s.76.372,1.025.5l.882.416a8.265,8.265,0,0,0,.569-.914,16.587,16.587,0,0,0,1.575-7.364,1.071,1.071,0,0,0-.007-.12.7.7,0,0,0,.007-.094V5.562a11.694,11.694,0,0,0,2.825-2.995A12.158,12.158,0,0,1,24.513,3.582Zm0,0" transform="translate(0.001)" fill="#fff"/>
</svg>
