<svg xmlns="http://www.w3.org/2000/svg" width="33.526" height="23.802" viewBox="0 0 33.526 23.802"><path d="M29.547,3.823l-.017-.056A6.419,6.419,0,0,0,32.608.4a15.638,15.638,0,0,1-4.453,1.484A7.083,7.083,0,0,0,23.244,0C19.448,0,16.3,2.679,16.3,5.993a9.8,9.8,0,0,0,.112,1.431A21.552,21.552,0,0,1,7.06,4.6,17.485,17.485,0,0,1,3.188,1.69a1.436,1.436,0,0,0-1.55-.34A1.123,1.123,0,0,0,.865,2.57,16.517,16.517,0,0,0,3.952,9.287a3.854,3.854,0,0,1-.964-.241,1.437,1.437,0,0,0-1.466.1,1.06,1.06,0,0,0-.41,1.258c.055.147,1.2,3.068,5.4,4.616a7.634,7.634,0,0,1-1.707.222H4.779A1.311,1.311,0,0,0,3.544,16a1.057,1.057,0,0,0,.434,1.283,15.093,15.093,0,0,0,5.032,1.941,10.337,10.337,0,0,1-3.772.921,14.76,14.76,0,0,1-3.618-.194,1.349,1.349,0,0,0-1.556.752A1.1,1.1,0,0,0,.8,22.116,30.5,30.5,0,0,0,9.952,23.8a29.115,29.115,0,0,0,7.531-.8,16.34,16.34,0,0,0,6.823-3.593c.194-.171.931-.917.931-.917s-.623-.424-.941-.7c-.188-.162-.983-.8-.983-.8s-.546.52-.869.8c-3.5,3.082-7.524,3.714-12.492,3.714q-.175,0-.349,0a9.753,9.753,0,0,0,3.523-2.355,1.026,1.026,0,0,0,.179-1.2,1.327,1.327,0,0,0-1.153-.668,14.392,14.392,0,0,1-3.57-.547A5.662,5.662,0,0,0,10.607,15.3a1.023,1.023,0,0,0,.171-1.1,1.283,1.283,0,0,0-.987-.706,9.576,9.576,0,0,1-4.606-1.875,10.42,10.42,0,0,0,1.745-.231,1.241,1.241,0,0,0,.948-.813,1.047,1.047,0,0,0-.357-1.116,11.35,11.35,0,0,1-2.667-3.4q.323.2.673.405a24.868,24.868,0,0,0,12.478,3.3,1.384,1.384,0,0,0,1.039-.448,1.029,1.029,0,0,0,.225-.992,8.995,8.995,0,0,1-.347-2.327A3.438,3.438,0,0,1,20.19,3.379a4.672,4.672,0,0,1,3.054-1.1,4.275,4.275,0,0,1,3,1.163,4.261,4.261,0,0,1,1.255,2.6v.692a.588.588,0,0,0,.009.1,1.037,1.037,0,0,0-.009.133,14,14,0,0,1-1.638,6.867c-.16.289-.626.993-.626.993s.916.4,1.236.532l1.063.444a8.75,8.75,0,0,0,.686-.976,16.019,16.019,0,0,0,1.9-7.86,1.014,1.014,0,0,0-.009-.128.665.665,0,0,0,.009-.1v-.8a13.268,13.268,0,0,0,3.4-3.2A16.034,16.034,0,0,1,29.547,3.823Zm0,0" transform="translate(0.001)" fill="#fff"/></svg>