<?xml version="1.0" encoding="iso-8859-1"?>
<!-- Generator: Adobe Illustrator 19.0.0, SVG Export Plug-In . SVG Version: 6.00 Build 0)  -->
<svg version="1.1" id="Capa_1" xmlns="http://www.w3.org/2000/svg" xmlns:xlink="http://www.w3.org/1999/xlink" x="0px" y="0px"
	 viewBox="0 0 512 512" style="enable-background:new 0 0 512 512;" xml:space="preserve">
<g>
	<g>
		<path d="M492,352c11.046,0,20-8.954,20-20V20c0-11.046-8.954-20-20-20H392c-11.046,0-20,8.954-20,20v73h-73
			c-11.046,0-20,8.954-20,20v73h-73c-11.046,0-20,8.954-20,20v73h-73c-11.046,0-20,8.954-20,20v73H20c-11.046,0-20,8.954-20,20v100
			c0,11.046,8.954,20,20,20h412c44.112,0,80-35.888,80-80c0-11.046-8.954-20-20-20c-11.046,0-20,8.954-20,20
			c0,22.056-17.944,40-40,40H40v-60h73c11.046,0,20-8.954,20-20v-73h73c11.046,0,20-8.954,20-20v-73h73c11.046,0,20-8.954,20-20v-73
			h73c11.046,0,20-8.954,20-20V40h60v292C472,343.046,480.954,352,492,352z"/>
	</g>
</g>
<g>
</g>
<g>
</g>
<g>
</g>
<g>
</g>
<g>
</g>
<g>
</g>
<g>
</g>
<g>
</g>
<g>
</g>
<g>
</g>
<g>
</g>
<g>
</g>
<g>
</g>
<g>
</g>
<g>
</g>
</svg>
