<?xml version="1.0" encoding="iso-8859-1"?>
<!-- Generator: Adobe Illustrator 19.0.0, SVG Export Plug-In . SVG Version: 6.00 Build 0)  -->
<svg version="1.1" id="Capa_1" xmlns="http://www.w3.org/2000/svg" xmlns:xlink="http://www.w3.org/1999/xlink" x="0px" y="0px"
	 viewBox="0 0 511.999 511.999" style="enable-background:new 0 0 511.999 511.999;" xml:space="preserve">
<g>
	<g>
		<path d="M494.474,213.595L310.173,28.639c-11.354-11.384-26.464-17.653-42.543-17.653c-24.725,0-45.985,14.182-55.482,37.011
			c-9.497,22.829-4.568,47.905,12.854,65.435l81.973,82.564H60.003C26.917,195.996,0,222.914,0,255.999s26.917,60.003,60.003,60.003
			h246.972l-81.965,82.557c-17.429,17.537-22.358,42.612-12.861,65.441c9.496,22.829,30.756,37.012,55.482,37.012
			c16.079,0,31.188-6.268,42.554-17.663l114.394-114.841c7.795-7.825,7.77-20.49-0.056-28.285
			c-7.825-7.794-20.489-7.771-28.285,0.056L281.855,455.11c-3.742,3.75-8.925,5.901-14.224,5.901
			c-12.436,0-17.342-9.471-18.549-12.374c-1.208-2.903-4.465-13.059,4.308-21.886l115.821-116.659
			c5.69-5.73,7.375-14.323,4.271-21.778c-3.105-7.456-10.388-12.314-18.465-12.314H60.003c-11.029,0-20.001-8.972-20.001-20.001
			c0-11.029,8.972-20.001,20.001-20.001h295.014c8.076,0,15.361-4.857,18.465-12.314c3.103-7.456,1.418-16.048-4.271-21.779
			L253.382,85.243c-8.766-8.82-5.508-18.976-4.3-21.879c1.207-2.903,6.113-12.374,18.549-12.374c5.298,0,10.482,2.151,14.216,5.894
			l184.317,184.971c7.799,7.798,7.799,20.487,0,28.285c-7.81,7.81-7.81,20.475,0,28.286s20.475,7.811,28.286,0
			C517.844,275.032,517.844,236.965,494.474,213.595z"/>
	</g>
</g>
<g>
</g>
<g>
</g>
<g>
</g>
<g>
</g>
<g>
</g>
<g>
</g>
<g>
</g>
<g>
</g>
<g>
</g>
<g>
</g>
<g>
</g>
<g>
</g>
<g>
</g>
<g>
</g>
<g>
</g>
</svg>
